<svg viewBox="0 0 64 64" width="64" height="64" xmlns="http://www.w3.org/2000/svg">
  <circle cx="32" cy="32" r="30" fill="#fff" stroke="#222" stroke-width="4"/>
  <polygon points="32,14 41,22 37,34 27,34 23,22" fill="#222"/>
  <polygon points="32,50 23,42 27,34 37,34 41,42" fill="#222"/>
  <polygon points="14,32 22,23 23,22 27,34 23,42" fill="#222"/>
  <polygon points="50,32 42,23 41,22 37,34 41,42" fill="#222"/>
  <polygon points="22,23 32,14 41,22 42,23 32,26" fill="#fff" stroke="#222" stroke-width="2"/>
  <polygon points="23,42 32,50 41,42 37,34 27,34" fill="#fff" stroke="#222" stroke-width="2"/>
</svg>
